<svg width="31" height="25" viewBox="0 0 31 25" fill="none" xmlns="http://www.w3.org/2000/svg">
<path d="M5.375 0V4.16667M5.375 4.16667C3.51104 4.16667 2 5.65905 2 7.5C2 9.341 3.51104 10.8333 5.375 10.8333M5.375 4.16667C7.23896 4.16667 8.75 5.65905 8.75 7.5C8.75 9.341 7.23896 10.8333 5.375 10.8333M5.375 10.8333V25M15.5 0V14.1667M15.5 14.1667C13.636 14.1667 12.125 15.659 12.125 17.5C12.125 19.341 13.636 20.8333 15.5 20.8333M15.5 14.1667C17.364 14.1667 18.875 15.659 18.875 17.5C18.875 19.341 17.364 20.8333 15.5 20.8333M15.5 20.8333V25M25.625 0V4.16667M25.625 4.16667C23.761 4.16667 22.25 5.65905 22.25 7.5C22.25 9.341 23.761 10.8333 25.625 10.8333M25.625 4.16667C27.489 4.16667 29 5.65905 29 7.5C29 9.341 27.489 10.8333 25.625 10.8333M25.625 10.8333V25" stroke="white" stroke-width="3"/>
</svg>
