<svg width="34" height="31" viewBox="0 0 34 31" fill="none" xmlns="http://www.w3.org/2000/svg">
<path d="M9.19891 22.3125C9.92469 22.3125 10.5131 21.7271 10.5131 21.0051C10.5131 20.2831 9.92469 19.6977 9.19891 19.6977C8.47313 19.6977 7.88477 20.2831 7.88477 21.0051C7.88477 21.7271 8.47313 22.3125 9.19891 22.3125Z" fill="white"/>
<path d="M27.8486 27.5419H5.25646C4.55962 27.5412 3.89153 27.2655 3.39879 26.7753C2.90605 26.2851 2.6289 25.6204 2.62817 24.9272V17.083C2.6289 16.3897 2.90605 15.7251 3.39879 15.2349C3.89153 14.7447 4.55962 14.469 5.25646 14.4682H27.8486C28.5454 14.469 29.2135 14.7447 29.7062 15.2349C30.199 15.7251 30.4761 16.3897 30.4769 17.083V24.9272C30.4761 25.6204 30.199 26.2851 29.7062 26.7753C29.2135 27.2655 28.5454 27.5412 27.8486 27.5419ZM6.25646 17.083C5.70418 17.083 5.25646 17.5307 5.25646 18.083V23.9272C5.25646 24.4795 5.70418 24.9272 6.25646 24.9272H26.8486C27.4009 24.9272 27.8486 24.4795 27.8486 23.9272V18.083C27.8486 17.5307 27.4009 17.083 26.8486 17.083H6.25646Z" fill="white"/>
<path d="M29.0926 8.85715H4.0129C3.27915 8.85715 2.68433 9.45197 2.68433 10.1857C2.68433 10.9195 3.27915 11.5143 4.0129 11.5143H29.0926C29.8263 11.5143 30.4212 10.9195 30.4212 10.1857C30.4212 9.45197 29.8263 8.85715 29.0926 8.85715Z" fill="white"/>
<path d="M21.9346 3.54285H19.2233C18.4896 3.54285 17.8948 4.13767 17.8948 4.87142C17.8948 5.60517 18.4896 6.19999 19.2233 6.19999H21.9346C22.6684 6.19999 23.2632 5.60517 23.2632 4.87142C23.2632 4.13767 22.6684 3.54285 21.9346 3.54285Z" fill="white"/>
<path d="M13.8819 3.54285H11.1706C10.4369 3.54285 9.84204 4.13767 9.84204 4.87142C9.84204 5.60517 10.4369 6.19999 11.1706 6.19999H13.8819C14.6156 6.19999 15.2105 5.60517 15.2105 4.87142C15.2105 4.13767 14.6156 3.54285 13.8819 3.54285Z" fill="white"/>
<path d="M6.72418 3.54285H4.0129C3.27915 3.54285 2.68433 4.13767 2.68433 4.87142C2.68433 5.60517 3.27915 6.19999 4.0129 6.19999H6.72418C7.45793 6.19999 8.05275 5.60517 8.05275 4.87142C8.05275 4.13767 7.45793 3.54285 6.72418 3.54285Z" fill="white"/>
<path d="M29.0926 3.54285H26.3813C25.6476 3.54285 25.0527 4.13767 25.0527 4.87142C25.0527 5.60517 25.6476 6.19999 26.3813 6.19999H29.0926C29.8263 6.19999 30.4212 5.60517 30.4212 4.87142C30.4212 4.13767 29.8263 3.54285 29.0926 3.54285Z" fill="white"/>
</svg>
