<svg width="27" height="27" viewBox="0 0 27 27" fill="none" xmlns="http://www.w3.org/2000/svg">
<path d="M4.3 20.4V20.17C4.3 18.2378 4.3 17.2718 4.67603 16.5337C5.00679 15.8845 5.53457 15.3568 6.18373 15.026C6.92172 14.65 7.88782 14.65 9.82 14.65H17.18C19.1122 14.65 20.0782 14.65 20.8163 15.026C21.4655 15.3568 21.9932 15.8845 22.3239 16.5337C22.7 17.2718 22.7 18.2378 22.7 20.17V20.4M4.3 20.4C3.02974 20.4 2 21.4297 2 22.7C2 23.9703 3.02974 25 4.3 25C5.57026 25 6.6 23.9703 6.6 22.7C6.6 21.4297 5.57026 20.4 4.3 20.4ZM22.7 20.4C21.4297 20.4 20.4 21.4297 20.4 22.7C20.4 23.9703 21.4297 25 22.7 25C23.9703 25 25 23.9703 25 22.7C25 21.4297 23.9703 20.4 22.7 20.4ZM13.5 20.4C12.2297 20.4 11.2 21.4297 11.2 22.7C11.2 23.9703 12.2297 25 13.5 25C14.7703 25 15.8 23.9703 15.8 22.7C15.8 21.4297 14.7703 20.4 13.5 20.4ZM13.5 20.4V8.9M6.6 8.9H20.4C21.4717 8.9 22.0075 8.9 22.4302 8.72492C22.9937 8.49149 23.4415 8.04373 23.675 7.48018C23.85 7.05749 23.85 6.52166 23.85 5.45C23.85 4.37834 23.85 3.84251 23.675 3.41982C23.4415 2.85627 22.9937 2.40851 22.4302 2.17508C22.0075 2 21.4717 2 20.4 2H6.6C5.52834 2 4.99251 2 4.56982 2.17508C4.00627 2.40851 3.55851 2.85627 3.32508 3.41982C3.15 3.84251 3.15 4.37834 3.15 5.45C3.15 6.52166 3.15 7.05749 3.32508 7.48018C3.55851 8.04373 4.00627 8.49149 4.56982 8.72492C4.99251 8.9 5.52834 8.9 6.6 8.9Z" stroke="white" stroke-width="2.5" stroke-linecap="round" stroke-linejoin="round"/>
</svg>
