<svg width="29" height="31" viewBox="0 0 29 31" fill="none" xmlns="http://www.w3.org/2000/svg">
<path d="M2 14.0249C2 15.2411 2.875 16.6456 3.94444 17.1379L13.375 21.5106C14.0972 21.8437 14.9167 21.8437 15.625 21.5106L25.0556 17.1379C26.125 16.6456 27 15.2411 27 14.0249M2 21.2645C2 22.611 2.76389 23.8273 3.94444 24.3775L13.375 28.7502C14.0972 29.0833 14.9167 29.0833 15.625 28.7502L25.0556 24.3775C26.2361 23.8273 27 22.611 27 21.2645M15.9028 2.32578L24.0972 6.11933C26.4583 7.20527 26.4583 9.0007 24.0972 10.0866L15.9028 13.8802C14.9722 14.3146 13.4444 14.3146 12.5139 13.8802L4.31944 10.0866C1.95833 9.0007 1.95833 7.20527 4.31944 6.11933L12.5139 2.32578C13.4444 1.89141 14.9722 1.89141 15.9028 2.32578Z" stroke="white" stroke-width="3" stroke-linecap="round" stroke-linejoin="round"/>
</svg>
