<svg id="visual" viewBox="0 0 900 600" width="900" height="600" xmlns="http://www.w3.org/2000/svg" xmlns:xlink="http://www.w3.org/1999/xlink" version="1.1"><rect x="0" y="0" width="900" height="600" fill="#171717"></rect><path d="M0 398L15 403.8C30 409.7 60 421.3 90 425.7C120 430 150 427 180 425.5C210 424 240 424 270 421.2C300 418.3 330 412.7 360 407.8C390 403 420 399 450 401.7C480 404.3 510 413.7 540 421.8C570 430 600 437 630 436.5C660 436 690 428 720 420.3C750 412.7 780 405.3 810 410C840 414.7 870 431.3 885 439.7L900 448L900 601L885 601C870 601 840 601 810 601C780 601 750 601 720 601C690 601 660 601 630 601C600 601 570 601 540 601C510 601 480 601 450 601C420 601 390 601 360 601C330 601 300 601 270 601C240 601 210 601 180 601C150 601 120 601 90 601C60 601 30 601 15 601L0 601Z" fill="#4713be"></path><path d="M0 467L15 469.2C30 471.3 60 475.7 90 480C120 484.3 150 488.7 180 482.2C210 475.7 240 458.3 270 454.7C300 451 330 461 360 468.3C390 475.7 420 480.3 450 481.2C480 482 510 479 540 478.8C570 478.7 600 481.3 630 480.8C660 480.3 690 476.7 720 474.3C750 472 780 471 810 467.7C840 464.3 870 458.7 885 455.8L900 453L900 601L885 601C870 601 840 601 810 601C780 601 750 601 720 601C690 601 660 601 630 601C600 601 570 601 540 601C510 601 480 601 450 601C420 601 390 601 360 601C330 601 300 601 270 601C240 601 210 601 180 601C150 601 120 601 90 601C60 601 30 601 15 601L0 601Z" fill="#4e20bd"></path><path d="M0 500L15 501C30 502 60 504 90 503.3C120 502.7 150 499.3 180 503.2C210 507 240 518 270 521.5C300 525 330 521 360 517.7C390 514.3 420 511.7 450 507.3C480 503 510 497 540 494.2C570 491.3 600 491.7 630 492.8C660 494 690 496 720 500.3C750 504.7 780 511.3 810 515.5C840 519.7 870 521.3 885 522.2L900 523L900 601L885 601C870 601 840 601 810 601C780 601 750 601 720 601C690 601 660 601 630 601C600 601 570 601 540 601C510 601 480 601 450 601C420 601 390 601 360 601C330 601 300 601 270 601C240 601 210 601 180 601C150 601 120 601 90 601C60 601 30 601 15 601L0 601Z" fill="#542abb"></path><path d="M0 528L15 528.2C30 528.3 60 528.7 90 532.3C120 536 150 543 180 546.8C210 550.7 240 551.3 270 552.2C300 553 330 554 360 554.7C390 555.3 420 555.7 450 555.8C480 556 510 556 540 559C570 562 600 568 630 563.3C660 558.7 690 543.3 720 542C750 540.7 780 553.3 810 560.5C840 567.7 870 569.3 885 570.2L900 571L900 601L885 601C870 601 840 601 810 601C780 601 750 601 720 601C690 601 660 601 630 601C600 601 570 601 540 601C510 601 480 601 450 601C420 601 390 601 360 601C330 601 300 601 270 601C240 601 210 601 180 601C150 601 120 601 90 601C60 601 30 601 15 601L0 601Z" fill="#5a32b9"></path></svg>